<svg fill="#FFFFFF" xmlns="http://www.w3.org/2000/svg" xmlns:xlink="http://www.w3.org/1999/xlink" version="1.1" x="0px" y="0px" viewBox="0 0 91 91" enable-background="new 0 0 91 91" xml:space="preserve"><g><path d="M66.198,19.023c0.338-0.229,0.709-0.408,1.066-0.607c1.611-0.9,3.422-1.279,5.127-1.934   c3.957-1.514,6.324-4.332,7.182-8.461c0.133-0.643,0.238-1.295-0.477-1.641c-0.459-0.225-0.973,0.354-1.193,1.279   c-0.279,1.182-0.725,2.293-1.482,3.254c-0.848,1.078-1.887,1.898-3.215,2.416c-0.057-0.434,0.139-0.68,0.266-0.941   c1.775-3.695,1.578-7.34-0.279-10.943c-0.189-0.367-0.396-0.721-0.76-0.949c-0.277-0.174-0.561-0.375-0.906-0.172   c-0.367,0.219-0.395,0.582-0.336,0.939c0.049,0.295,0.17,0.576,0.271,0.855c0.867,2.393,1.246,4.809,0.367,7.293   c-0.35,0.988-0.689,1.057-1.398,0.256c-0.699-0.791-1.205-1.676-1.436-2.723c-0.139-0.627-0.395-1.328-1.201-1.166   c-0.875,0.174-0.664,0.945-0.555,1.549c0.303,1.699,0.965,3.25,2.145,4.531c0.465,0.506,0.455,0.902-0.012,1.406   c-1.053,1.143-2.258,2.057-3.693,2.66c-2.045,0.857-4.027,1.826-5.855,3.092c-0.152,0.109-0.314,0.324-0.563,0.133   c0.152-0.291,0.439-0.414,0.674-0.598c1.33-1.029,2.529-2.172,3.262-3.725c0.166-0.348,0.318-0.699,0.313-1.092   c-0.004-0.309-0.039-0.617-0.402-0.729c-0.318-0.098-0.609-0.016-0.816,0.232c-0.135,0.16-0.219,0.369-0.309,0.566   c-0.469,1.012-1.156,1.848-2.021,2.541c-0.373,0.299-0.596,0.352-0.613-0.271c-0.025-1.076-0.252-2.123-0.721-3.092   c-0.217-0.447-0.574-0.92-1.135-0.744c-0.553,0.174-0.318,0.727-0.283,1.143c0.008,0.109,0.023,0.219,0.051,0.326   c0.498,2.006,0.316,3.98-0.482,5.859c-0.877,2.057-1.883,4.057-2.826,6.088c-0.09,0.193-0.17,0.322-0.422,0.244   c-0.742-0.221-1.609,0.006-2.244-0.268c-0.654-0.285-0.713-1.277-1.068-1.939c-0.506-0.939-0.961-1.902-1.428-2.859   c-1.152-2.359-1.613-4.799-0.957-7.395c0.104-0.402,0.271-0.971-0.227-1.184c-0.555-0.238-0.873,0.283-1.172,0.67   c-0.096,0.125-0.141,0.293-0.197,0.447c-0.275,0.748-0.457,1.514-0.518,2.311c-0.021,0.293,0.07,0.725-0.201,0.826   c-0.314,0.117-0.57-0.252-0.801-0.475c-0.734-0.703-1.393-1.463-1.753-2.443c-0.172-0.465-0.527-0.746-1.02-0.578   c-0.529,0.182-0.508,0.664-0.367,1.102c0.125,0.389,0.281,0.771,0.477,1.129c0.746,1.373,1.876,2.4,3.095,3.344   c0.215,0.166,0.518,0.264,0.588,0.584c-0.199,0.105-0.311-0.004-0.412-0.076c-1.906-1.35-4.003-2.336-6.14-3.254   c-1.381-0.592-2.513-1.512-3.542-2.602c-0.495-0.523-0.441-0.9,0.009-1.389c1.247-1.348,1.89-2.99,2.195-4.771   c0.096-0.547,0.126-1.176-0.604-1.313c-0.677-0.123-0.945,0.418-1.15,0.947c-0.087,0.227-0.115,0.479-0.183,0.713   c-0.293,0.996-0.862,1.822-1.604,2.529c-0.406,0.391-0.731,0.297-0.968-0.18c-0.099-0.193-0.16-0.404-0.225-0.613   c-0.734-2.381-0.387-4.695,0.436-6.984c0.11-0.305,0.231-0.615,0.279-0.938c0.051-0.354,0.046-0.729-0.343-0.932   c-0.351-0.18-0.636,0.012-0.901,0.205c-0.338,0.248-0.571,0.584-0.761,0.955c-1.841,3.578-2.018,7.199-0.296,10.877   c0.131,0.275,0.398,0.535,0.241,0.896c-0.334,0-0.578-0.189-0.833-0.334c-1.956-1.121-3.177-2.793-3.732-4.965   C27.1,7.549,27.05,7.129,26.808,6.789c-0.195-0.275-0.446-0.516-0.82-0.428c-0.362,0.086-0.525,0.381-0.574,0.725   c-0.031,0.213-0.049,0.443-0.005,0.656c0.692,3.285,2.152,6.064,5.217,7.752c1.391,0.77,2.855,1.367,4.381,1.813   c1.235,0.361,2.422,0.848,3.522,1.523c0.289,0.176,0.72,0.289,0.675,0.732c-0.045,0.463-0.482,0.561-0.84,0.672   c-0.858,0.271-1.713,0.566-2.59,0.758c-2.259,0.49-4.353,0.248-6.058-1.523c-0.359-0.373-0.837-0.664-1.303-0.285   c-0.484,0.396-0.192,0.9,0.058,1.332c0.095,0.162,0.224,0.309,0.359,0.443c0.808,0.787,1.7,1.471,2.738,1.914   c2.914,1.248,5.782,0.875,8.569-0.395c2.948-1.346,5.232-0.49,7.48,2.596c-1.494-0.592-2.943-0.725-4.428-0.6   c-0.224,0.018-0.488-0.09-0.691-0.209c-0.607-0.359-0.857-0.283-0.844,0.42c0.041,2.131,0.674,3.98,2.656,5.121   c0.717,0.412,1.502,0.645,2.268,0.932c0.883,0.328,1.08,0.725,0.84,1.646c-0.125,0.479-0.311,0.939-0.389,1.422   c-0.275,1.672-0.51,3.348-0.768,5.02c-0.246,1.578-0.918,2.316-2.488,2.639c-1.353,0.279-2.724,0.195-4.082,0.029   c-1.979-0.244-3.943-0.625-5.927-0.801c-4.043-0.354-7.855,0.24-11.034,3.068c-0.365,0.326-0.796,0.578-1.197,0.859   c-0.59,0.414-1.191,0.457-1.847,0.125c-0.508-0.264-1.035-0.514-1.585-0.658c-0.52-0.139-1.119-0.229-1.472,0.361   c-0.379,0.637-0.424,1.295,0.056,1.918c0.239,0.311,0.561,0.521,0.92,0.66c0.504,0.197,1.294,0.242,1.456,0.588   c0.195,0.42-0.156,1.08-0.236,1.643c-0.391,2.727,0.063,5.404,0.616,8.051c0.71,3.393-0.037,6.277-2.671,8.604   c-0.41,0.359-0.835,0.707-1.222,1.092c-0.464,0.461-0.711,1.018-0.653,1.697c0.441,5.135,0.149,10.273,0.153,15.412   c0.001,2.025,0.349,2.422,2.391,2.457c0.327,0.004,0.658,0.016,0.983-0.014c0.685-0.061,0.926-0.396,0.72-1.053   c-0.104-0.332-0.264-0.674-0.483-0.938c-0.448-0.543-0.563-1.166-0.566-1.832c-0.013-3.035,0-6.074,0.411-9.084   c0.167-1.223,0.792-2.283,2.005-2.855c3.204-1.514,6.24-3.283,8.798-5.775c0.591-0.576,1.123-1.213,1.745-1.889   c0.211,0.869,0.161,1.615-0.028,2.361c-0.406,1.602-1.297,2.941-2.333,4.188c-0.511,0.615-0.492,1.195-0.004,1.764   c0.298,0.352,0.644,0.674,1.016,0.947c0.492,0.361,0.893,0.793,1.264,1.271c2.194,2.816,3.822,6.023,6.143,8.76   c0.725,0.855,1.121,1.992,1.646,3.012c0.6,1.162,2.153,1.752,3.376,1.248c1.004-0.414,1.431-2.039,0.596-2.668   c-0.9-0.684-1.508-1.576-2.182-2.424c-1.94-2.439-3.769-4.965-5.329-7.668c-1.062-1.838-0.924-2.889,0.552-4.408   c1.318-1.354,2.524-2.801,3.613-4.344c0.746-1.057,1.875-1.072,2.694-0.043c0.467,0.586,0.766,1.268,0.941,1.986   c0.554,2.289,1.38,4.488,2.263,6.66c0.588,1.439,0.615,2.984,1.086,4.441c0.891,2.742,1.223,5.537,0.596,8.395   c-0.188,0.855-0.311,1.719-0.254,2.602c0.041,0.646,0.289,0.967,1.016,0.961c1.281-0.008,2.58-0.27,3.836,0.303   c0.436,0.197,0.971,0.117,1.459,0.008c0.732-0.162,1.129-0.576,1.127-1.375c0-0.785-0.297-1.439-0.771-2.021   c-0.291-0.357-0.439-0.734-0.486-1.186c-0.344-3.367-0.738-6.732-0.205-10.125c0.311-1.967,0.102-3.99,0.627-5.936   c0.648-2.398,1.297-4.799,1.936-7.199c0.066-0.242,0.148-0.459,0.355-0.621c1.018-0.811,1.459-1.957,1.779-3.156   c0.553-2.082,0.629-4.211,0.58-6.348c-0.027-1.193-0.168-2.373,0.564-3.463c0.244-0.359,0.27-0.879,0.344-1.336   c0.367-2.291,0.178-4.582-0.082-6.867c-0.314-2.771-0.893-5.496-1.436-8.227c-0.217-1.076,0.33-1.797,1.393-1.84   c0.453-0.021,0.871-0.158,1.23-0.41c1.443-1.008,2.324-2.385,2.465-4.15c0.113-1.418-0.688-2.184-2.113-2.176   c-0.432,0.002-0.791,0.189-1.166,0.344c-0.613,0.252-1.174,0.637-2.012,0.797c1.154-1.209,2.088-2.402,3.531-3.002   c1.572-0.65,3.021-0.191,4.506,0.414c3.902,1.602,7.611,1.541,10.896-1.508c0.373-0.346,0.662-0.73,0.764-1.229   c0.107-0.547-0.26-0.891-0.813-0.811c-0.354,0.053-0.574,0.295-0.807,0.529c-0.859,0.855-1.893,1.375-3.096,1.547   c-2.082,0.299-4.002-0.342-5.893-1.076C65.653,19.826,65.661,19.383,66.198,19.023z M50.134,82.912   c-0.006,0.256-0.219,0.279-0.756-0.465c-0.234-0.949-0.299-2.129-0.203-3.045c0.279-2.699-0.346-5.324-0.588-7.979   c-0.168-1.846-0.453-3.68-0.684-5.52c-0.021-0.188-0.031-0.387-0.008-0.572c0.051-0.395,0.189-0.686,0.643-0.807   c0.955-0.246,1.049,0.568,1.072,0.855c0.229,2.883,0.053,5.424,0.348,8.301C50.208,76.125,50.179,80.451,50.134,82.912z"></path></g></svg>